<?xml version="1.0" standalone="no"?><!DOCTYPE svg PUBLIC "-//W3C//DTD SVG 1.1//EN" "http://www.w3.org/Graphics/SVG/1.1/DTD/svg11.dtd"><svg t="1611219410439" class="icon" viewBox="0 0 1024 1024" version="1.1" xmlns="http://www.w3.org/2000/svg" p-id="16803" xmlns:xlink="http://www.w3.org/1999/xlink" width="200" height="200"><defs><style type="text/css"></style></defs><path d="M339 939.5c0-12.2-8.1-20.4-20.4-20.4H196.4c-22.4 0-40.7-16.3-40.7-40.7v-733c0-22.4 18.3-40.7 40.7-40.7h122.2c12.2 0 20.4-8.1 20.4-20.4 0-12.3-8.2-20.4-20.4-20.4H196.4c-44.8 0-81.5 34.6-81.5 81.5v733.1c0 44.8 36.7 81.5 81.5 81.5h122.2c12.2 0 20.4-8.1 20.4-20.5z" p-id="16804"></path><path d="M884.8 454.9c16.3 16.3 24.4 36.7 24.4 57 0 20.4-8.1 42.8-24.4 57L679.1 774.6c-8.1 8.1-20.4 8.1-28.5 0-8.1-8.1-8.1-20.4 0-28.5l205.6-205.7c2-2 4.1-6.1 6.1-8.1H288.1c-12.2 0-20.4-8.1-20.4-20.4 0-12.2 8.1-20.4 20.4-20.4h574.3c-2-2-4.1-6.1-6.1-8.1L650.5 277.7c-8.1-8.1-8.1-20.4 0-28.5 8.1-8.1 20.4-8.1 28.5 0l205.8 205.7z" p-id="16805"></path></svg>