<?xml version="1.0" standalone="no"?><!DOCTYPE svg PUBLIC "-//W3C//DTD SVG 1.1//EN" "http://www.w3.org/Graphics/SVG/1.1/DTD/svg11.dtd"><svg t="1611362684215" class="icon" viewBox="0 0 1024 1024" version="1.1" xmlns="http://www.w3.org/2000/svg" p-id="6395" xmlns:xlink="http://www.w3.org/1999/xlink" width="200" height="200"><defs><style type="text/css"></style></defs><path d="M512 912c-220.8 0-400-179.2-400-400s179.2-400 400-400 400 179.2 400 400-179.2 400-400 400z m0-752c-194.4 0-352 157.6-352 352s157.6 352 352 352 352-157.6 352-352-157.6-352-352-352z" fill="#999999" p-id="6396"></path><path d="M512 672c-88 0-160-72-160-160s72-160 160-160 160 72 160 160-72 160-160 160z m0-272c-61.6 0-112 50.4-112 112s50.4 112 112 112 112-50.4 112-112-50.4-112-112-112z" fill="#999999" p-id="6397"></path></svg>